<svg xmlns="http://www.w3.org/2000/svg" viewBox="-3 -3 58 66" width="200" height="228">
  <!-- Yellow crescent fill -->
  <path d="M18.418,55.234A29.957,29.957,0,0,1,1.68,43.573a30.258,30.258,0,0,0,5.243,1.9,31.463,31.463,0,0,0,38.555-22.24A31.168,31.168,0,0,0,43.55,1.68,30.052,30.052,0,0,1,18.395,55.234" transform="translate(2.27 2.27)" fill="#fff200"/>
  <!-- Dark crescent outline -->
  <path d="M44.479,1.364C43.656.87,42.787.423,41.893,0c.541.776,1.058,1.575,1.552,2.421A30.069,30.069,0,0,1,2.421,43.445C1.6,42.975.776,42.457,0,41.917c.423.893.87,1.74,1.364,2.586A31.477,31.477,0,1,0,44.456,1.387M20.688,57.5A29.957,29.957,0,0,1,3.95,45.843a30.258,30.258,0,0,0,5.243,1.9,31.463,31.463,0,0,0,38.555-22.24A31.168,31.168,0,0,0,45.819,3.95,30.052,30.052,0,0,1,20.665,57.5Z" fill="#231f20"/>
  <!-- K.G. text -->
  <path d="M15.243,19.32s.118-.071.141-.047c.047.024.024.118.047.235a.923.923,0,0,0,.188.423c.141.235,5.219,8.3,5.384,8.557a1.406,1.406,0,0,0,.517.541c.118.047.141.094.118.141,0,.047-.071.071-.141.118s-1.622.846-1.693.893a.179.179,0,0,1-.212.024.253.253,0,0,1-.047-.188,1.39,1.39,0,0,0-.282-.682c-.282-.447-5.172-8.2-5.266-8.369a1.6,1.6,0,0,0-.494-.494c-.071-.024-.118-.094-.024-.141S15.2,19.32,15.2,19.32" transform="translate(18.14 26.029)" fill="#231f20"/>
  <path d="M15.35,25.782s.541-4.161.588-4.843c.024-.682,0-.964-.071-1.058a.4.4,0,0,0-.188-.165c-.094-.047-.071-.118,0-.165s2.257-1.716,2.351-1.787.141-.047.165,0,0,.094-.047.188a2.359,2.359,0,0,0-.188.87c-.071.705-.729,6.441-.729,6.441l-1.834.541" transform="translate(20.737 23.94)" fill="#231f20"/>
  <path d="M16.234,23.227a5.064,5.064,0,0,1,6.3,1.011,3.112,3.112,0,0,1,.47.752c.047.212.165.188.282.118.141-.071,1.693-1.1,1.693-1.1.047-.024.094-.071.094-.094,0-.047-.024-.094-.071-.094a1.328,1.328,0,0,1-.517-.447,7.593,7.593,0,0,0-4.725-2.586,10.324,10.324,0,0,0-4.49.987l1.011,1.481" transform="translate(20.628 28.046)" fill="#231f20"/>
  <path d="M21.7,20.8a1.21,1.21,0,1,1-1.669-.376A1.214,1.214,0,0,1,21.7,20.8" transform="translate(26.304 27.344)" fill="#231f20"/>
  <path d="M25.422,14.8a1.21,1.21,0,1,1-1.669-.376,1.214,1.214,0,0,1,1.669.376" transform="translate(31.329 19.239)" fill="#231f20"/>
  <path d="M15.29,21.034c.094.141.165.047.188-.024l.094.235-.118.094-.141-.047v-.235" transform="translate(20.655 28.383)" fill="#231f20"/>
  <path d="M16.2,20.864a.048.048,0,0,0,.071.047l-.071.047H16.08l.094-.118" transform="translate(21.723 28.153)" fill="#231f20"/>
  <path d="M15.858,21.9s-.047-.141.024-.165h-.071l-.071.047v.094l.141.024" transform="translate(21.263 29.369)" fill="#231f20"/>
  <path d="M24.457,21.137s.118.094.165.071.047-.118.071-.212a1.3,1.3,0,0,1,.259-.423c.094-.141,1.434-1.9,1.5-2.022a.168.168,0,0,1,.259-.024c.071.047,1.5,1.128,1.81,1.34.282.235.165.658.141.823a5.44,5.44,0,0,1-.893,1.575,4.308,4.308,0,0,1-5.995.752,4.148,4.148,0,0,1-.705-5.83,4.631,4.631,0,0,1,1.9-1.434c.141-.047.141-.118.141-.141a.084.084,0,0,0-.047-.071c-.047-.024-1.693-1.269-1.74-1.293-.024-.024-.071-.047-.094-.024-.047,0-.071.094-.141.235a3.606,3.606,0,0,1-.682.658A6.2,6.2,0,0,0,18.3,20.173a5.924,5.924,0,0,0,2.327,4.3,6.222,6.222,0,0,0,6.347.729,6.647,6.647,0,0,0,3.479-4.185,7.376,7.376,0,0,1,.517-1.693c.047-.188-.047-.212-.118-.212a.173.173,0,0,1-.141-.047c-.047-.047-4.3-3.221-4.349-3.244-.047-.047-.141,0-.165.024,0,0-2.515,3.362-2.68,3.6a.738.738,0,0,1-.376.306c-.094.047-.165.094-.165.141a.174.174,0,0,0,.118.141l1.387,1.034" transform="translate(24.7 19.204)" fill="#231f20"/>
</svg>
